<svg width="25" height="20" viewBox="0 0 25 20" fill="none" xmlns="http://www.w3.org/2000/svg">
<path d="M3.125 5L6.25 1.66667H18.75L21.875 5M3.125 5V16.6667C3.125 17.1087 3.34449 17.5326 3.73519 17.8452C4.12589 18.1577 4.6558 18.3333 5.20833 18.3333H19.7917C20.3442 18.3333 20.8741 18.1577 21.2648 17.8452C21.6555 17.5326 21.875 17.1087 21.875 16.6667V5M3.125 5H21.875M16.6667 8.33333C16.6667 9.21739 16.2277 10.0652 15.4463 10.6904C14.6649 11.3155 13.6051 11.6667 12.5 11.6667C11.3949 11.6667 10.3351 11.3155 9.55372 10.6904C8.77232 10.0652 8.33333 9.21739 8.33333 8.33333" stroke="#1E1E1E" stroke-width="1.6" stroke-linecap="round" stroke-linejoin="round"/>
</svg>
